<?xml version="1.0" standalone="no"?><!DOCTYPE svg PUBLIC "-//W3C//DTD SVG 1.1//EN" "http://www.w3.org/Graphics/SVG/1.1/DTD/svg11.dtd"><svg t="1755072654585" class="icon" viewBox="0 0 1024 1024" version="1.1" xmlns="http://www.w3.org/2000/svg" p-id="7799" xmlns:xlink="http://www.w3.org/1999/xlink" width="48" height="48"><path d="M760 136c110.457 0 200 89.543 200 200v296c0 110.457-89.543 200-200 200h-79.443l-97.846 97.848c-39.053 39.052-102.37 39.052-141.422 0L343.442 832H264c-110.457 0-200-89.543-200-200V336c0-110.457 89.543-200 200-200h496z m0 100H264c-54.676 0-99.104 43.88-99.987 98.346L164 336v296c0 54.676 43.88 99.104 98.346 99.987L264 732h120.863L512 859.136 639.135 732H760c54.676 0 99.104-43.88 99.987-98.346L860 632V336c0-54.676-43.88-99.104-98.346-99.987L760 236z" fill="#3A3939" p-id="7800"></path><path d="M382 484m-70 0a70 70 0 1 0 140 0 70 70 0 1 0-140 0Z" fill="#3A3939" p-id="7801"></path><path d="M642 484m-70 0a70 70 0 1 0 140 0 70 70 0 1 0-140 0Z" fill="#3A3939" p-id="7802"></path></svg>